<mxfile host="Electron" agent="Mozilla/5.0 (Windows NT 10.0; Win64; x64) AppleWebKit/537.36 (KHTML, like Gecko) draw.io/26.1.1 Chrome/132.0.6834.210 Electron/34.3.3 Safari/537.36" version="26.1.1">
  <diagram name="第 1 页" id="qWg73QQLu-jlkn9CHouk">
    <mxGraphModel dx="1562" dy="909" grid="1" gridSize="10" guides="1" tooltips="1" connect="1" arrows="1" fold="1" page="1" pageScale="1" pageWidth="1169" pageHeight="827" math="0" shadow="0">
      <root>
        <mxCell id="0" />
        <mxCell id="1" parent="0" />
        <mxCell id="HibjiugWb25rPsMZCDyj-1" value="SBEAM商城产品结构图" style="rounded=1;whiteSpace=wrap;html=1;" vertex="1" parent="1">
          <mxGeometry x="450" y="90" width="200" height="60" as="geometry" />
        </mxCell>
        <mxCell id="HibjiugWb25rPsMZCDyj-2" value="搜索页" style="rounded=1;whiteSpace=wrap;html=1;" vertex="1" parent="1">
          <mxGeometry x="190" y="190" width="120" height="60" as="geometry" />
        </mxCell>
        <mxCell id="HibjiugWb25rPsMZCDyj-32" style="edgeStyle=orthogonalEdgeStyle;rounded=0;orthogonalLoop=1;jettySize=auto;html=1;entryX=0;entryY=0.5;entryDx=0;entryDy=0;" edge="1" parent="1" source="HibjiugWb25rPsMZCDyj-3" target="HibjiugWb25rPsMZCDyj-21">
          <mxGeometry relative="1" as="geometry" />
        </mxCell>
        <mxCell id="HibjiugWb25rPsMZCDyj-33" style="edgeStyle=orthogonalEdgeStyle;rounded=0;orthogonalLoop=1;jettySize=auto;html=1;entryX=0;entryY=0.5;entryDx=0;entryDy=0;" edge="1" parent="1" source="HibjiugWb25rPsMZCDyj-3" target="HibjiugWb25rPsMZCDyj-22">
          <mxGeometry relative="1" as="geometry" />
        </mxCell>
        <mxCell id="HibjiugWb25rPsMZCDyj-34" style="edgeStyle=orthogonalEdgeStyle;rounded=0;orthogonalLoop=1;jettySize=auto;html=1;entryX=0;entryY=0.5;entryDx=0;entryDy=0;" edge="1" parent="1" source="HibjiugWb25rPsMZCDyj-3" target="HibjiugWb25rPsMZCDyj-23">
          <mxGeometry relative="1" as="geometry" />
        </mxCell>
        <mxCell id="HibjiugWb25rPsMZCDyj-3" value="游戏详情页" style="rounded=1;whiteSpace=wrap;html=1;" vertex="1" parent="1">
          <mxGeometry x="340" y="190" width="120" height="60" as="geometry" />
        </mxCell>
        <mxCell id="HibjiugWb25rPsMZCDyj-35" style="edgeStyle=orthogonalEdgeStyle;rounded=0;orthogonalLoop=1;jettySize=auto;html=1;entryX=0;entryY=0.5;entryDx=0;entryDy=0;" edge="1" parent="1" source="HibjiugWb25rPsMZCDyj-4" target="HibjiugWb25rPsMZCDyj-25">
          <mxGeometry relative="1" as="geometry" />
        </mxCell>
        <mxCell id="HibjiugWb25rPsMZCDyj-36" style="edgeStyle=orthogonalEdgeStyle;rounded=0;orthogonalLoop=1;jettySize=auto;html=1;entryX=0;entryY=0.5;entryDx=0;entryDy=0;" edge="1" parent="1" source="HibjiugWb25rPsMZCDyj-4" target="HibjiugWb25rPsMZCDyj-26">
          <mxGeometry relative="1" as="geometry" />
        </mxCell>
        <mxCell id="HibjiugWb25rPsMZCDyj-4" value="支付结算页" style="rounded=1;whiteSpace=wrap;html=1;" vertex="1" parent="1">
          <mxGeometry x="640" y="190" width="120" height="60" as="geometry" />
        </mxCell>
        <mxCell id="HibjiugWb25rPsMZCDyj-5" value="愿望单" style="rounded=1;whiteSpace=wrap;html=1;" vertex="1" parent="1">
          <mxGeometry x="490" y="190" width="120" height="60" as="geometry" />
        </mxCell>
        <mxCell id="HibjiugWb25rPsMZCDyj-6" value="游戏库" style="rounded=1;whiteSpace=wrap;html=1;" vertex="1" parent="1">
          <mxGeometry x="790" y="190" width="120" height="60" as="geometry" />
        </mxCell>
        <mxCell id="HibjiugWb25rPsMZCDyj-29" style="edgeStyle=orthogonalEdgeStyle;rounded=0;orthogonalLoop=1;jettySize=auto;html=1;exitX=0.5;exitY=1;exitDx=0;exitDy=0;entryX=0;entryY=0.5;entryDx=0;entryDy=0;" edge="1" parent="1" source="HibjiugWb25rPsMZCDyj-7" target="HibjiugWb25rPsMZCDyj-18">
          <mxGeometry relative="1" as="geometry" />
        </mxCell>
        <mxCell id="HibjiugWb25rPsMZCDyj-30" style="edgeStyle=orthogonalEdgeStyle;rounded=0;orthogonalLoop=1;jettySize=auto;html=1;entryX=0;entryY=0.5;entryDx=0;entryDy=0;" edge="1" parent="1" source="HibjiugWb25rPsMZCDyj-7" target="HibjiugWb25rPsMZCDyj-19">
          <mxGeometry relative="1" as="geometry" />
        </mxCell>
        <mxCell id="HibjiugWb25rPsMZCDyj-31" style="edgeStyle=orthogonalEdgeStyle;rounded=0;orthogonalLoop=1;jettySize=auto;html=1;entryX=0;entryY=0.5;entryDx=0;entryDy=0;" edge="1" parent="1" source="HibjiugWb25rPsMZCDyj-7" target="HibjiugWb25rPsMZCDyj-20">
          <mxGeometry relative="1" as="geometry" />
        </mxCell>
        <mxCell id="HibjiugWb25rPsMZCDyj-7" value="首页" style="rounded=1;whiteSpace=wrap;html=1;" vertex="1" parent="1">
          <mxGeometry x="40" y="190" width="120" height="60" as="geometry" />
        </mxCell>
        <mxCell id="HibjiugWb25rPsMZCDyj-37" style="edgeStyle=orthogonalEdgeStyle;rounded=0;orthogonalLoop=1;jettySize=auto;html=1;entryX=0;entryY=0.5;entryDx=0;entryDy=0;" edge="1" parent="1" source="HibjiugWb25rPsMZCDyj-8" target="HibjiugWb25rPsMZCDyj-27">
          <mxGeometry relative="1" as="geometry" />
        </mxCell>
        <mxCell id="HibjiugWb25rPsMZCDyj-38" style="edgeStyle=orthogonalEdgeStyle;rounded=0;orthogonalLoop=1;jettySize=auto;html=1;entryX=0;entryY=0.5;entryDx=0;entryDy=0;" edge="1" parent="1" source="HibjiugWb25rPsMZCDyj-8" target="HibjiugWb25rPsMZCDyj-28">
          <mxGeometry relative="1" as="geometry" />
        </mxCell>
        <mxCell id="HibjiugWb25rPsMZCDyj-8" value="用户中心" style="rounded=1;whiteSpace=wrap;html=1;" vertex="1" parent="1">
          <mxGeometry x="940" y="190" width="120" height="60" as="geometry" />
        </mxCell>
        <mxCell id="HibjiugWb25rPsMZCDyj-9" value="" style="endArrow=none;html=1;rounded=0;" edge="1" parent="1">
          <mxGeometry width="50" height="50" relative="1" as="geometry">
            <mxPoint x="100" y="170" as="sourcePoint" />
            <mxPoint x="1000" y="170" as="targetPoint" />
          </mxGeometry>
        </mxCell>
        <mxCell id="HibjiugWb25rPsMZCDyj-10" value="" style="endArrow=none;html=1;rounded=0;" edge="1" parent="1" source="HibjiugWb25rPsMZCDyj-7">
          <mxGeometry width="50" height="50" relative="1" as="geometry">
            <mxPoint x="320" y="400" as="sourcePoint" />
            <mxPoint x="100" y="170" as="targetPoint" />
          </mxGeometry>
        </mxCell>
        <mxCell id="HibjiugWb25rPsMZCDyj-11" value="" style="endArrow=none;html=1;rounded=0;exitX=0.5;exitY=0;exitDx=0;exitDy=0;" edge="1" parent="1" source="HibjiugWb25rPsMZCDyj-2">
          <mxGeometry width="50" height="50" relative="1" as="geometry">
            <mxPoint x="110" y="200" as="sourcePoint" />
            <mxPoint x="250" y="170" as="targetPoint" />
          </mxGeometry>
        </mxCell>
        <mxCell id="HibjiugWb25rPsMZCDyj-13" value="" style="endArrow=none;html=1;rounded=0;entryX=0.5;entryY=0;entryDx=0;entryDy=0;" edge="1" parent="1" target="HibjiugWb25rPsMZCDyj-3">
          <mxGeometry width="50" height="50" relative="1" as="geometry">
            <mxPoint x="400" y="170" as="sourcePoint" />
            <mxPoint x="370" y="350" as="targetPoint" />
          </mxGeometry>
        </mxCell>
        <mxCell id="HibjiugWb25rPsMZCDyj-14" value="" style="endArrow=none;html=1;rounded=0;entryX=0.5;entryY=0;entryDx=0;entryDy=0;" edge="1" parent="1" target="HibjiugWb25rPsMZCDyj-5">
          <mxGeometry width="50" height="50" relative="1" as="geometry">
            <mxPoint x="550" y="170" as="sourcePoint" />
            <mxPoint x="370" y="350" as="targetPoint" />
          </mxGeometry>
        </mxCell>
        <mxCell id="HibjiugWb25rPsMZCDyj-15" value="" style="endArrow=none;html=1;rounded=0;entryX=0.5;entryY=0;entryDx=0;entryDy=0;" edge="1" parent="1" target="HibjiugWb25rPsMZCDyj-4">
          <mxGeometry width="50" height="50" relative="1" as="geometry">
            <mxPoint x="700" y="170" as="sourcePoint" />
            <mxPoint x="370" y="350" as="targetPoint" />
          </mxGeometry>
        </mxCell>
        <mxCell id="HibjiugWb25rPsMZCDyj-16" value="" style="endArrow=none;html=1;rounded=0;entryX=0.5;entryY=0;entryDx=0;entryDy=0;" edge="1" parent="1" target="HibjiugWb25rPsMZCDyj-6">
          <mxGeometry width="50" height="50" relative="1" as="geometry">
            <mxPoint x="850" y="170" as="sourcePoint" />
            <mxPoint x="370" y="350" as="targetPoint" />
          </mxGeometry>
        </mxCell>
        <mxCell id="HibjiugWb25rPsMZCDyj-17" value="" style="endArrow=none;html=1;rounded=0;entryX=0.5;entryY=0;entryDx=0;entryDy=0;" edge="1" parent="1" target="HibjiugWb25rPsMZCDyj-8">
          <mxGeometry width="50" height="50" relative="1" as="geometry">
            <mxPoint x="1000" y="170" as="sourcePoint" />
            <mxPoint x="370" y="350" as="targetPoint" />
          </mxGeometry>
        </mxCell>
        <mxCell id="HibjiugWb25rPsMZCDyj-18" value="游戏推荐" style="rounded=1;whiteSpace=wrap;html=1;" vertex="1" parent="1">
          <mxGeometry x="120" y="280" width="120" height="60" as="geometry" />
        </mxCell>
        <mxCell id="HibjiugWb25rPsMZCDyj-19" value="热门新游" style="rounded=1;whiteSpace=wrap;html=1;" vertex="1" parent="1">
          <mxGeometry x="120" y="370" width="120" height="60" as="geometry" />
        </mxCell>
        <mxCell id="HibjiugWb25rPsMZCDyj-20" value="分类浏览" style="rounded=1;whiteSpace=wrap;html=1;" vertex="1" parent="1">
          <mxGeometry x="120" y="460" width="120" height="60" as="geometry" />
        </mxCell>
        <mxCell id="HibjiugWb25rPsMZCDyj-21" value="媒体预览" style="rounded=1;whiteSpace=wrap;html=1;" vertex="1" parent="1">
          <mxGeometry x="420" y="280" width="120" height="60" as="geometry" />
        </mxCell>
        <mxCell id="HibjiugWb25rPsMZCDyj-22" value="购买选项" style="rounded=1;whiteSpace=wrap;html=1;" vertex="1" parent="1">
          <mxGeometry x="420" y="370" width="120" height="60" as="geometry" />
        </mxCell>
        <mxCell id="HibjiugWb25rPsMZCDyj-23" value="用户评价" style="rounded=1;whiteSpace=wrap;html=1;" vertex="1" parent="1">
          <mxGeometry x="420" y="460" width="120" height="60" as="geometry" />
        </mxCell>
        <mxCell id="HibjiugWb25rPsMZCDyj-25" value="商品列表" style="rounded=1;whiteSpace=wrap;html=1;" vertex="1" parent="1">
          <mxGeometry x="720" y="280" width="120" height="60" as="geometry" />
        </mxCell>
        <mxCell id="HibjiugWb25rPsMZCDyj-26" value="支付方式选择" style="rounded=1;whiteSpace=wrap;html=1;" vertex="1" parent="1">
          <mxGeometry x="720" y="370" width="120" height="60" as="geometry" />
        </mxCell>
        <mxCell id="HibjiugWb25rPsMZCDyj-27" value="我的订单" style="rounded=1;whiteSpace=wrap;html=1;" vertex="1" parent="1">
          <mxGeometry x="1020" y="280" width="120" height="60" as="geometry" />
        </mxCell>
        <mxCell id="HibjiugWb25rPsMZCDyj-28" value="账户余额" style="rounded=1;whiteSpace=wrap;html=1;" vertex="1" parent="1">
          <mxGeometry x="1020" y="370" width="120" height="60" as="geometry" />
        </mxCell>
      </root>
    </mxGraphModel>
  </diagram>
</mxfile>
